<svg width="257" height="42" viewBox="0 0 257 42" fill="none" xmlns="http://www.w3.org/2000/svg">
<g clip-path="url(#clip0_22071_8581)">
<path fill-rule="evenodd" clip-rule="evenodd" d="M27.6914 5.90869H35.5922C37.7545 5.90869 39.5059 7.6601 39.5059 9.82236V32.1755C39.5059 34.3419 37.7545 36.0933 35.5922 36.0933H13.239C11.6079 36.0933 10.2115 35.0987 9.62516 33.6802C10.499 33.5964 11.2941 33.1513 11.8246 32.438C12.5824 31.4295 13.4627 30.6698 14.4379 30.1565C18.1123 28.2411 20.3987 24.4761 20.3987 20.3309C20.3987 14.2422 15.4522 9.28391 9.36568 9.25841C9.63886 7.36358 11.2683 5.90869 13.2391 5.90869H21.1394V8.824C21.1394 9.39111 21.6034 9.8508 22.1662 9.8508H26.6646C27.2316 9.8508 27.6914 9.39111 27.6914 8.824V5.90869ZM24.9898 29.8053V32.2394C24.9898 32.5798 25.2659 32.856 25.6063 32.856H34.7037C35.0441 32.856 35.3203 32.5798 35.3203 32.2394V29.8053C35.3203 29.4649 35.0442 29.1887 34.7037 29.1887H25.6063C25.266 29.1888 24.9898 29.4649 24.9898 29.8053Z" fill="white"/>
<path fill-rule="evenodd" clip-rule="evenodd" d="M8.62047 31.0987C7.69195 29.8439 6.48726 28.8337 5.11961 28.0935C2.08312 26.4496 0.125622 23.0807 0.552185 19.2975C1.01015 15.2697 4.27273 12.0136 8.30047 11.5618C13.6395 10.9658 18.1504 15.1317 18.1504 20.3326C18.1504 23.7456 16.2243 26.6943 13.3949 28.1687C12.0648 28.8651 10.9292 29.8878 10.0258 31.0924L10.0227 31.0965C9.67398 31.5667 8.9707 31.5678 8.62047 31.0987ZM9.32289 24.4763C7.03867 24.4763 5.17914 22.622 5.17914 20.3325C5.17914 18.0483 7.03875 16.1887 9.32289 16.1887C11.6126 16.1887 13.4668 18.0483 13.4668 20.3325C13.4668 22.6221 11.6126 24.4763 9.32289 24.4763Z" fill="#EA0C0C"/>
</g>
<path d="M46.9 19C46.7533 19 46.6333 18.9533 46.54 18.86C46.4467 18.7667 46.4 18.6467 46.4 18.5V5.5C46.4 5.35333 46.4467 5.23333 46.54 5.14C46.6333 5.04667 46.7533 5 46.9 5H52.5C53.6067 5 54.5667 5.17333 55.38 5.52C56.2067 5.85333 56.8467 6.36 57.3 7.04C57.7667 7.72 58 8.58 58 9.62C58 10.6467 57.7667 11.4933 57.3 12.16C56.8467 12.8267 56.2067 13.32 55.38 13.64C54.5667 13.96 53.6067 14.12 52.5 14.12H50.12V18.5C50.12 18.6467 50.0667 18.7667 49.96 18.86C49.8667 18.9533 49.7467 19 49.6 19H46.9ZM50.06 11.36H52.4C52.9733 11.36 53.4267 11.2133 53.76 10.92C54.1067 10.6267 54.28 10.18 54.28 9.58C54.28 9.07333 54.1333 8.64667 53.84 8.3C53.5467 7.95333 53.0667 7.78 52.4 7.78H50.06V11.36ZM66.6356 19.2C65.409 19.2 64.3423 19 63.4356 18.6C62.529 18.2 61.8223 17.6 61.3156 16.8C60.809 15.9867 60.529 14.9733 60.4756 13.76C60.4623 13.1867 60.4556 12.6133 60.4556 12.04C60.4556 11.4667 60.4623 10.8867 60.4756 10.3C60.529 9.1 60.809 8.09333 61.3156 7.28C61.8356 6.45333 62.549 5.83333 63.4556 5.42C64.3623 5.00667 65.4223 4.8 66.6356 4.8C67.8356 4.8 68.889 5.00667 69.7956 5.42C70.7156 5.83333 71.4356 6.45333 71.9556 7.28C72.4756 8.09333 72.7556 9.1 72.7956 10.3C72.8223 10.8867 72.8356 11.4667 72.8356 12.04C72.8356 12.6133 72.8223 13.1867 72.7956 13.76C72.7423 14.9733 72.4623 15.9867 71.9556 16.8C71.449 17.6 70.7423 18.2 69.8356 18.6C68.929 19 67.8623 19.2 66.6356 19.2ZM66.6356 16.32C67.3423 16.32 67.9156 16.1067 68.3556 15.68C68.809 15.2533 69.049 14.5733 69.0756 13.64C69.1023 13.0533 69.1156 12.5 69.1156 11.98C69.1156 11.46 69.1023 10.92 69.0756 10.36C69.049 9.73333 68.929 9.22667 68.7156 8.84C68.5156 8.44 68.2356 8.14667 67.8756 7.96C67.5156 7.77333 67.1023 7.68 66.6356 7.68C66.1823 7.68 65.7756 7.77333 65.4156 7.96C65.0556 8.14667 64.769 8.44 64.5556 8.84C64.3423 9.22667 64.2223 9.73333 64.1956 10.36C64.1823 10.92 64.1756 11.46 64.1756 11.98C64.1756 12.5 64.1823 13.0533 64.1956 13.64C64.2356 14.5733 64.4756 15.2533 64.9156 15.68C65.3556 16.1067 65.929 16.32 66.6356 16.32Z" fill="#EA0C0C"/>
<path d="M75.9 19C75.7533 19 75.6333 18.9533 75.54 18.86C75.4467 18.7667 75.4 18.6467 75.4 18.5V5.5C75.4 5.35333 75.4467 5.23333 75.54 5.14C75.6333 5.04667 75.7533 5 75.9 5H78.54C78.6733 5 78.7867 5.04667 78.88 5.14C78.9867 5.23333 79.04 5.35333 79.04 5.5V15.98H85.08C85.2267 15.98 85.3467 16.0333 85.44 16.14C85.5467 16.2333 85.6 16.3533 85.6 16.5V18.5C85.6 18.6467 85.5467 18.7667 85.44 18.86C85.3467 18.9533 85.2267 19 85.08 19H75.9ZM87.5336 19C87.4269 19 87.3269 18.96 87.2336 18.88C87.1536 18.7867 87.1136 18.6867 87.1136 18.58C87.1136 18.5133 87.1203 18.4533 87.1336 18.4L91.8336 5.56C91.8736 5.41333 91.9536 5.28667 92.0736 5.18C92.2069 5.06 92.3869 5 92.6136 5H95.5736C95.8003 5 95.9736 5.06 96.0936 5.18C96.2269 5.28667 96.3136 5.41333 96.3536 5.56L101.034 18.4C101.06 18.4533 101.074 18.5133 101.074 18.58C101.074 18.6867 101.027 18.7867 100.934 18.88C100.854 18.96 100.754 19 100.634 19H98.1736C97.9736 19 97.8203 18.9533 97.7136 18.86C97.6203 18.7533 97.5603 18.66 97.5336 18.58L96.7536 16.54H91.4136L90.6536 18.58C90.6269 18.66 90.5669 18.7533 90.4736 18.86C90.3803 18.9533 90.2203 19 89.9936 19H87.5336ZM92.2336 13.66H95.9536L94.0736 8.38L92.2336 13.66ZM104.15 19C104.003 19 103.883 18.9533 103.79 18.86C103.697 18.7667 103.65 18.6467 103.65 18.5V5.5C103.65 5.35333 103.697 5.23333 103.79 5.14C103.883 5.04667 104.003 5 104.15 5H106.27C106.497 5 106.657 5.05333 106.75 5.16C106.857 5.25333 106.923 5.32667 106.95 5.38L111.83 13.08V5.5C111.83 5.35333 111.877 5.23333 111.97 5.14C112.063 5.04667 112.183 5 112.33 5H114.73C114.877 5 114.997 5.04667 115.09 5.14C115.183 5.23333 115.23 5.35333 115.23 5.5V18.5C115.23 18.6333 115.183 18.7533 115.09 18.86C114.997 18.9533 114.877 19 114.73 19H112.59C112.377 19 112.217 18.9467 112.11 18.84C112.017 18.7333 111.957 18.66 111.93 18.62L107.05 11.22V18.5C107.05 18.6467 107.003 18.7667 106.91 18.86C106.817 18.9533 106.697 19 106.55 19H104.15ZM119.525 19C119.378 19 119.258 18.9533 119.165 18.86C119.072 18.7667 119.025 18.6467 119.025 18.5V5.5C119.025 5.35333 119.072 5.23333 119.165 5.14C119.258 5.04667 119.378 5 119.525 5H124.725C126.032 5 127.145 5.21333 128.065 5.64C128.985 6.05333 129.692 6.66667 130.185 7.48C130.678 8.28 130.945 9.27333 130.985 10.46C130.998 11.0467 131.005 11.56 131.005 12C131.005 12.44 130.998 12.9467 130.985 13.52C130.932 14.76 130.665 15.7867 130.185 16.6C129.718 17.4133 129.032 18.02 128.125 18.42C127.232 18.8067 126.132 19 124.825 19H119.525ZM122.605 16.12H124.725C125.298 16.12 125.772 16.0333 126.145 15.86C126.532 15.6733 126.818 15.3867 127.005 15C127.205 14.6133 127.312 14.1067 127.325 13.48C127.352 13.0933 127.365 12.7467 127.365 12.44C127.378 12.1333 127.378 11.8267 127.365 11.52C127.365 11.2133 127.352 10.8733 127.325 10.5C127.298 9.59333 127.058 8.93333 126.605 8.52C126.165 8.09333 125.505 7.88 124.625 7.88H122.605V16.12ZM134.281 19C134.135 19 134.008 18.9533 133.901 18.86C133.808 18.7667 133.761 18.6467 133.761 18.5V17.08C133.761 16.9867 133.788 16.8467 133.841 16.66C133.895 16.46 134.035 16.2733 134.261 16.1L136.341 14.06C137.408 13.2467 138.281 12.56 138.961 12C139.655 11.4267 140.168 10.92 140.501 10.48C140.835 10.04 141.001 9.62667 141.001 9.24C141.001 8.78667 140.881 8.41333 140.641 8.12C140.415 7.81333 140.015 7.66 139.441 7.66C139.055 7.66 138.728 7.74667 138.461 7.92C138.208 8.08 138.015 8.29333 137.881 8.56C137.748 8.82667 137.655 9.1 137.601 9.38C137.548 9.55333 137.455 9.67333 137.321 9.74C137.201 9.80667 137.068 9.84 136.921 9.84H134.421C134.301 9.84 134.201 9.8 134.121 9.72C134.041 9.64 134.001 9.54 134.001 9.42C134.015 8.78 134.148 8.18 134.401 7.62C134.668 7.06 135.035 6.56667 135.501 6.14C135.981 5.7 136.548 5.36 137.201 5.12C137.868 4.88 138.615 4.76 139.441 4.76C140.575 4.76 141.535 4.94 142.321 5.3C143.121 5.66 143.728 6.16667 144.141 6.82C144.555 7.46 144.761 8.21333 144.761 9.08C144.761 9.73333 144.615 10.3467 144.321 10.92C144.041 11.48 143.635 12.02 143.101 12.54C142.581 13.0467 141.961 13.5733 141.241 14.12L139.401 15.98H144.541C144.688 15.98 144.808 16.0267 144.901 16.12C145.008 16.2133 145.061 16.3333 145.061 16.48V18.5C145.061 18.6467 145.008 18.7667 144.901 18.86C144.808 18.9533 144.688 19 144.541 19H134.281ZM154.651 19C154.518 19 154.398 18.9533 154.291 18.86C154.198 18.7667 154.151 18.6467 154.151 18.5V16.24H147.931C147.798 16.24 147.678 16.1933 147.571 16.1C147.478 16.0067 147.431 15.8867 147.431 15.74V13.84C147.431 13.72 147.451 13.6133 147.491 13.52C147.544 13.4133 147.598 13.3133 147.651 13.22L153.471 5.34C153.644 5.11333 153.891 5 154.211 5H157.111C157.258 5 157.378 5.04667 157.471 5.14C157.578 5.23333 157.631 5.35333 157.631 5.5V13.26H159.391C159.551 13.26 159.678 13.3133 159.771 13.42C159.864 13.5133 159.911 13.6267 159.911 13.76V15.74C159.911 15.8867 159.858 16.0067 159.751 16.1C159.658 16.1933 159.544 16.24 159.411 16.24H157.631V18.5C157.631 18.6467 157.578 18.7667 157.471 18.86C157.378 18.9533 157.258 19 157.111 19H154.651ZM150.871 13.4H154.231V8.68L150.871 13.4ZM162.947 19C162.801 19 162.681 18.9533 162.587 18.86C162.494 18.7667 162.447 18.6467 162.447 18.5V15.96C162.447 15.8267 162.494 15.7133 162.587 15.62C162.681 15.5133 162.801 15.46 162.947 15.46H165.467C165.614 15.46 165.734 15.5133 165.827 15.62C165.934 15.7133 165.987 15.8267 165.987 15.96V18.5C165.987 18.6467 165.934 18.7667 165.827 18.86C165.734 18.9533 165.614 19 165.467 19H162.947ZM175.054 19.2C173.787 19.2 172.701 18.9933 171.794 18.58C170.901 18.1667 170.201 17.56 169.694 16.76C169.201 15.96 168.927 14.9667 168.874 13.78C168.861 13.2333 168.854 12.6467 168.854 12.02C168.854 11.3933 168.861 10.7933 168.874 10.22C168.927 9.06 169.207 8.08 169.714 7.28C170.221 6.46667 170.927 5.85333 171.834 5.44C172.741 5.01333 173.814 4.8 175.054 4.8C175.934 4.8 176.747 4.91333 177.494 5.14C178.241 5.35333 178.894 5.67333 179.454 6.1C180.014 6.51333 180.447 7.02 180.754 7.62C181.074 8.20667 181.241 8.87333 181.254 9.62C181.267 9.74 181.227 9.84 181.134 9.92C181.054 10 180.954 10.04 180.834 10.04H178.134C177.961 10.04 177.827 10.0067 177.734 9.94C177.641 9.86 177.561 9.72 177.494 9.52C177.307 8.81333 177.001 8.33333 176.574 8.08C176.161 7.81333 175.647 7.68 175.034 7.68C174.301 7.68 173.721 7.88667 173.294 8.3C172.867 8.7 172.634 9.37333 172.594 10.32C172.554 11.4133 172.554 12.5333 172.594 13.68C172.634 14.6267 172.867 15.3067 173.294 15.72C173.721 16.12 174.301 16.32 175.034 16.32C175.647 16.32 176.167 16.1867 176.594 15.92C177.021 15.6533 177.321 15.1733 177.494 14.48C177.547 14.28 177.621 14.1467 177.714 14.08C177.821 14 177.961 13.96 178.134 13.96H180.834C180.954 13.96 181.054 14 181.134 14.08C181.227 14.16 181.267 14.26 181.254 14.38C181.241 15.1267 181.074 15.8 180.754 16.4C180.447 16.9867 180.014 17.4933 179.454 17.92C178.894 18.3333 178.241 18.6533 177.494 18.88C176.747 19.0933 175.934 19.2 175.054 19.2ZM190.077 19.2C188.85 19.2 187.784 19 186.877 18.6C185.97 18.2 185.264 17.6 184.757 16.8C184.25 15.9867 183.97 14.9733 183.917 13.76C183.904 13.1867 183.897 12.6133 183.897 12.04C183.897 11.4667 183.904 10.8867 183.917 10.3C183.97 9.1 184.25 8.09333 184.757 7.28C185.277 6.45333 185.99 5.83333 186.897 5.42C187.804 5.00667 188.864 4.8 190.077 4.8C191.277 4.8 192.33 5.00667 193.237 5.42C194.157 5.83333 194.877 6.45333 195.397 7.28C195.917 8.09333 196.197 9.1 196.237 10.3C196.264 10.8867 196.277 11.4667 196.277 12.04C196.277 12.6133 196.264 13.1867 196.237 13.76C196.184 14.9733 195.904 15.9867 195.397 16.8C194.89 17.6 194.184 18.2 193.277 18.6C192.37 19 191.304 19.2 190.077 19.2ZM190.077 16.32C190.784 16.32 191.357 16.1067 191.797 15.68C192.25 15.2533 192.49 14.5733 192.517 13.64C192.544 13.0533 192.557 12.5 192.557 11.98C192.557 11.46 192.544 10.92 192.517 10.36C192.49 9.73333 192.37 9.22667 192.157 8.84C191.957 8.44 191.677 8.14667 191.317 7.96C190.957 7.77333 190.544 7.68 190.077 7.68C189.624 7.68 189.217 7.77333 188.857 7.96C188.497 8.14667 188.21 8.44 187.997 8.84C187.784 9.22667 187.664 9.73333 187.637 10.36C187.624 10.92 187.617 11.46 187.617 11.98C187.617 12.5 187.624 13.0533 187.637 13.64C187.677 14.5733 187.917 15.2533 188.357 15.68C188.797 16.1067 189.37 16.32 190.077 16.32ZM200.095 19C199.962 19 199.842 18.9533 199.735 18.86C199.642 18.7667 199.595 18.6467 199.595 18.5V5.5C199.595 5.35333 199.642 5.23333 199.735 5.14C199.842 5.04667 199.962 5 200.095 5H202.255C202.469 5 202.629 5.06 202.735 5.18C202.855 5.28667 202.929 5.37333 202.955 5.44L206.475 11.76L209.995 5.44C210.035 5.37333 210.102 5.28667 210.195 5.18C210.302 5.06 210.469 5 210.695 5H212.835C212.982 5 213.102 5.04667 213.195 5.14C213.302 5.23333 213.355 5.35333 213.355 5.5V18.5C213.355 18.6467 213.302 18.7667 213.195 18.86C213.102 18.9533 212.982 19 212.835 19H210.455C210.309 19 210.182 18.9533 210.075 18.86C209.982 18.7667 209.935 18.6467 209.935 18.5V11L207.675 15.18C207.622 15.3 207.542 15.4067 207.435 15.5C207.329 15.5933 207.182 15.64 206.995 15.64H205.955C205.769 15.64 205.622 15.5933 205.515 15.5C205.409 15.4067 205.322 15.3 205.255 15.18L202.995 11V18.5C202.995 18.6467 202.949 18.7667 202.855 18.86C202.762 18.9533 202.642 19 202.495 19H200.095ZM217.26 19C217.113 19 216.993 18.9533 216.9 18.86C216.806 18.7667 216.76 18.6467 216.76 18.5V15.96C216.76 15.8267 216.806 15.7133 216.9 15.62C216.993 15.5133 217.113 15.46 217.26 15.46H219.78C219.926 15.46 220.046 15.5133 220.14 15.62C220.246 15.7133 220.3 15.8267 220.3 15.96V18.5C220.3 18.6467 220.246 18.7667 220.14 18.86C220.046 18.9533 219.926 19 219.78 19H217.26ZM229.33 19.2C228.13 19.2 227.077 19.0067 226.17 18.62C225.277 18.22 224.584 17.6133 224.09 16.8C223.597 15.9733 223.35 14.9267 223.35 13.66V5.5C223.35 5.35333 223.397 5.23333 223.49 5.14C223.584 5.04667 223.704 5 223.85 5H226.43C226.577 5 226.697 5.04667 226.79 5.14C226.884 5.23333 226.93 5.35333 226.93 5.5V13.64C226.93 14.5067 227.137 15.16 227.55 15.6C227.977 16.0267 228.57 16.24 229.33 16.24C230.077 16.24 230.657 16.0267 231.07 15.6C231.497 15.16 231.71 14.5067 231.71 13.64V5.5C231.71 5.35333 231.757 5.23333 231.85 5.14C231.957 5.04667 232.077 5 232.21 5H234.81C234.944 5 235.057 5.04667 235.15 5.14C235.257 5.23333 235.31 5.35333 235.31 5.5V13.66C235.31 14.9267 235.064 15.9733 234.57 16.8C234.077 17.6133 233.384 18.22 232.49 18.62C231.597 19.0067 230.544 19.2 229.33 19.2ZM237.85 19C237.743 19 237.643 18.96 237.55 18.88C237.47 18.7867 237.43 18.6867 237.43 18.58C237.43 18.5133 237.437 18.4533 237.45 18.4L242.15 5.56C242.19 5.41333 242.27 5.28667 242.39 5.18C242.523 5.06 242.703 5 242.93 5H245.89C246.117 5 246.29 5.06 246.41 5.18C246.543 5.28667 246.63 5.41333 246.67 5.56L251.35 18.4C251.377 18.4533 251.39 18.5133 251.39 18.58C251.39 18.6867 251.343 18.7867 251.25 18.88C251.17 18.96 251.07 19 250.95 19H248.49C248.29 19 248.137 18.9533 248.03 18.86C247.937 18.7533 247.877 18.66 247.85 18.58L247.07 16.54H241.73L240.97 18.58C240.943 18.66 240.883 18.7533 240.79 18.86C240.697 18.9533 240.537 19 240.31 19H237.85ZM242.55 13.66H246.27L244.39 8.38L242.55 13.66Z" fill="white"/>
<path d="M49.704 36.16C48.8827 36.16 48.1947 36.0053 47.64 35.696C47.096 35.376 46.68 34.928 46.392 34.352C46.1147 33.7653 45.9653 33.088 45.944 32.32C45.9333 32 45.928 31.68 45.928 31.36C45.928 31.04 45.9333 30.72 45.944 30.4C45.944 29.4293 46.024 28.624 46.184 27.984C46.344 27.344 46.584 26.8213 46.904 26.416C47.2347 26 47.6507 25.6587 48.152 25.392C48.6533 25.1253 49.2453 24.896 49.928 24.704C50.6107 24.5013 51.3893 24.288 52.264 24.064C52.36 24.0427 52.4507 24.0587 52.536 24.112C52.632 24.1653 52.6853 24.24 52.696 24.336L52.824 24.992C52.8453 25.088 52.8293 25.1733 52.776 25.248C52.7333 25.3227 52.664 25.3707 52.568 25.392C51.768 25.5947 51.0693 25.7707 50.472 25.92C49.8747 26.0693 49.3733 26.2453 48.968 26.448C48.5627 26.64 48.2373 26.8907 47.992 27.2C47.7467 27.5093 47.576 27.92 47.48 28.432C47.3947 28.944 47.368 29.6 47.4 30.4L47.048 30.256C47.1013 29.8613 47.2667 29.504 47.544 29.184C47.832 28.8533 48.1893 28.5867 48.616 28.384C49.0427 28.1813 49.496 28.08 49.976 28.08C50.712 28.08 51.3307 28.2347 51.832 28.544C52.344 28.8533 52.7333 29.2747 53 29.808C53.2773 30.3413 53.432 30.9547 53.464 31.648C53.4853 32.0107 53.4853 32.3253 53.464 32.592C53.432 33.2853 53.272 33.904 52.984 34.448C52.696 34.9813 52.28 35.4027 51.736 35.712C51.192 36.0107 50.5147 36.16 49.704 36.16ZM49.704 34.976C50.376 34.976 50.9093 34.768 51.304 34.352C51.6987 33.936 51.9067 33.328 51.928 32.528C51.9387 32.4213 51.944 32.2987 51.944 32.16C51.944 32.0213 51.9387 31.8773 51.928 31.728C51.9067 30.9173 51.6987 30.304 51.304 29.888C50.92 29.472 50.4347 29.264 49.848 29.264C49.176 29.264 48.6213 29.472 48.184 29.888C47.7467 30.304 47.512 30.9173 47.48 31.728C47.4693 31.8773 47.464 32.0213 47.464 32.16C47.464 32.2987 47.4693 32.4213 47.48 32.528C47.512 33.328 47.7253 33.936 48.12 34.352C48.5147 34.768 49.0427 34.976 49.704 34.976ZM60.3489 36C60.2422 36 60.1515 35.968 60.0769 35.904C60.0129 35.8293 59.9809 35.7387 59.9809 35.632V28.048C59.9809 27.9413 60.0129 27.856 60.0769 27.792C60.1515 27.7173 60.2422 27.68 60.3489 27.68H61.1169C61.2235 27.68 61.3089 27.7173 61.3729 27.792C61.4475 27.856 61.4849 27.9413 61.4849 28.048V30.4H63.1489C64.2369 30.4 65.0315 30.656 65.5329 31.168C66.0342 31.68 66.2849 32.3733 66.2849 33.248C66.2849 34.1867 66.0075 34.88 65.4529 35.328C64.8982 35.776 64.0662 36 62.9569 36H60.3489ZM61.4689 34.8H63.0049C63.6555 34.8 64.1302 34.688 64.4289 34.464C64.7275 34.2293 64.8769 33.824 64.8769 33.248C64.8769 32.6933 64.7329 32.2827 64.4449 32.016C64.1569 31.7387 63.6769 31.6 63.0049 31.6H61.4689V34.8ZM67.7889 36C67.6822 36 67.5915 35.968 67.5169 35.904C67.4529 35.8293 67.4209 35.7387 67.4209 35.632V28.048C67.4209 27.9413 67.4529 27.856 67.5169 27.792C67.5915 27.7173 67.6822 27.68 67.7889 27.68H68.5569C68.6635 27.68 68.7489 27.7173 68.8129 27.792C68.8875 27.856 68.9249 27.9413 68.9249 28.048V35.632C68.9249 35.7387 68.8875 35.8293 68.8129 35.904C68.7489 35.968 68.6635 36 68.5569 36H67.7889ZM79.169 36.16C78.4117 36.16 77.7557 36.016 77.201 35.728C76.657 35.4293 76.2357 35.008 75.937 34.464C75.6383 33.9093 75.4783 33.248 75.457 32.48C75.4463 32.32 75.441 32.1067 75.441 31.84C75.441 31.5733 75.4463 31.36 75.457 31.2C75.4783 30.432 75.6383 29.776 75.937 29.232C76.2357 28.6773 76.657 28.256 77.201 27.968C77.7557 27.6693 78.4117 27.52 79.169 27.52C79.7877 27.52 80.3157 27.6053 80.753 27.776C81.201 27.9467 81.569 28.1653 81.857 28.432C82.145 28.6987 82.3583 28.9867 82.497 29.296C82.6463 29.6053 82.7263 29.8987 82.737 30.176C82.7477 30.2827 82.7157 30.368 82.641 30.432C82.5663 30.496 82.4757 30.528 82.369 30.528H81.601C81.4943 30.528 81.4143 30.5067 81.361 30.464C81.3077 30.4107 81.2543 30.3253 81.201 30.208C81.009 29.6853 80.7477 29.3173 80.417 29.104C80.0863 28.8907 79.6757 28.784 79.185 28.784C78.545 28.784 78.0223 28.9813 77.617 29.376C77.2223 29.7707 77.009 30.4053 76.977 31.28C76.9663 31.664 76.9663 32.0373 76.977 32.4C77.009 33.2853 77.2223 33.9253 77.617 34.32C78.0223 34.704 78.545 34.896 79.185 34.896C79.6757 34.896 80.0863 34.7893 80.417 34.576C80.7477 34.3627 81.009 33.9947 81.201 33.472C81.2543 33.3547 81.3077 33.2747 81.361 33.232C81.4143 33.1787 81.4943 33.152 81.601 33.152H82.369C82.4757 33.152 82.5663 33.184 82.641 33.248C82.7157 33.312 82.7477 33.3973 82.737 33.504C82.7263 33.728 82.6783 33.9573 82.593 34.192C82.5077 34.4267 82.369 34.6667 82.177 34.912C81.9957 35.1467 81.7663 35.36 81.489 35.552C81.2117 35.7333 80.8757 35.8827 80.481 36C80.097 36.1067 79.6597 36.16 79.169 36.16ZM91.6811 36C91.5745 36 91.4838 35.968 91.4091 35.904C91.3451 35.8293 91.3131 35.7387 91.3131 35.632V28.96H88.5291C88.4225 28.96 88.3318 28.928 88.2571 28.864C88.1931 28.7893 88.1611 28.6987 88.1611 28.592V28.048C88.1611 27.9413 88.1931 27.856 88.2571 27.792C88.3318 27.7173 88.4225 27.68 88.5291 27.68H95.5691C95.6758 27.68 95.7611 27.7173 95.8251 27.792C95.8998 27.856 95.9371 27.9413 95.9371 28.048V28.592C95.9371 28.6987 95.8998 28.7893 95.8251 28.864C95.7611 28.928 95.6758 28.96 95.5691 28.96H92.7851V35.632C92.7851 35.7387 92.7531 35.8293 92.6891 35.904C92.6251 35.968 92.5345 36 92.4171 36H91.6811ZM102.209 39.04C102.102 39.04 102.011 39.0027 101.937 38.928C101.873 38.864 101.841 38.7787 101.841 38.672V28.048C101.841 27.9413 101.873 27.856 101.937 27.792C102.011 27.7173 102.102 27.68 102.209 27.68H102.945C103.051 27.68 103.137 27.7173 103.201 27.792C103.275 27.856 103.313 27.9413 103.313 28.048V28.752C103.569 28.4 103.91 28.1067 104.337 27.872C104.763 27.6373 105.297 27.52 105.937 27.52C106.534 27.52 107.041 27.6213 107.457 27.824C107.883 28.0267 108.23 28.304 108.497 28.656C108.774 29.008 108.982 29.408 109.121 29.856C109.259 30.304 109.334 30.784 109.345 31.296C109.355 31.4667 109.361 31.648 109.361 31.84C109.361 32.032 109.355 32.2133 109.345 32.384C109.334 32.8853 109.259 33.3653 109.121 33.824C108.982 34.272 108.774 34.672 108.497 35.024C108.23 35.3653 107.883 35.6427 107.457 35.856C107.041 36.0587 106.534 36.16 105.937 36.16C105.318 36.16 104.795 36.048 104.369 35.824C103.953 35.5893 103.611 35.3013 103.345 34.96V38.672C103.345 38.7787 103.313 38.864 103.249 38.928C103.185 39.0027 103.094 39.04 102.977 39.04H102.209ZM105.601 34.864C106.155 34.864 106.587 34.7467 106.897 34.512C107.217 34.2667 107.446 33.952 107.585 33.568C107.723 33.1733 107.803 32.752 107.825 32.304C107.835 31.9947 107.835 31.6853 107.825 31.376C107.803 30.928 107.723 30.512 107.585 30.128C107.446 29.7333 107.217 29.4187 106.897 29.184C106.587 28.9387 106.155 28.816 105.601 28.816C105.078 28.816 104.651 28.9387 104.321 29.184C104.001 29.4293 103.761 29.744 103.601 30.128C103.451 30.5013 103.366 30.8853 103.345 31.28C103.334 31.4507 103.329 31.6533 103.329 31.888C103.329 32.1227 103.334 32.3307 103.345 32.512C103.355 32.8853 103.441 33.2533 103.601 33.616C103.771 33.9787 104.022 34.2773 104.353 34.512C104.683 34.7467 105.099 34.864 105.601 34.864ZM118.176 36.16C117.643 36.16 117.157 36.0533 116.72 35.84C116.283 35.6267 115.931 35.3387 115.664 34.976C115.397 34.6133 115.264 34.2027 115.264 33.744C115.264 33.008 115.563 32.4213 116.16 31.984C116.757 31.5467 117.536 31.2587 118.496 31.12L120.88 30.784V30.32C120.88 29.808 120.731 29.408 120.432 29.12C120.144 28.832 119.669 28.688 119.008 28.688C118.528 28.688 118.139 28.784 117.84 28.976C117.552 29.168 117.349 29.4133 117.232 29.712C117.168 29.872 117.056 29.952 116.896 29.952H116.176C116.059 29.952 115.968 29.92 115.904 29.856C115.851 29.7813 115.824 29.696 115.824 29.6C115.824 29.44 115.883 29.2427 116 29.008C116.128 28.7733 116.32 28.544 116.576 28.32C116.832 28.096 117.157 27.9093 117.552 27.76C117.957 27.6 118.448 27.52 119.024 27.52C119.664 27.52 120.203 27.6053 120.64 27.776C121.077 27.936 121.419 28.1547 121.664 28.432C121.92 28.7093 122.101 29.024 122.208 29.376C122.325 29.728 122.384 30.0853 122.384 30.448V35.632C122.384 35.7387 122.347 35.8293 122.272 35.904C122.208 35.968 122.123 36 122.016 36H121.28C121.163 36 121.072 35.968 121.008 35.904C120.944 35.8293 120.912 35.7387 120.912 35.632V34.944C120.773 35.136 120.587 35.328 120.352 35.52C120.117 35.7013 119.824 35.856 119.472 35.984C119.12 36.1013 118.688 36.16 118.176 36.16ZM118.512 34.96C118.949 34.96 119.349 34.8693 119.712 34.688C120.075 34.496 120.357 34.2027 120.56 33.808C120.773 33.4133 120.88 32.9173 120.88 32.32V31.872L119.024 32.144C118.267 32.2507 117.696 32.432 117.312 32.688C116.928 32.9333 116.736 33.248 116.736 33.632C116.736 33.9307 116.821 34.1813 116.992 34.384C117.173 34.576 117.397 34.72 117.664 34.816C117.941 34.912 118.224 34.96 118.512 34.96ZM134.368 36C134.251 36 134.16 35.968 134.096 35.904C134.032 35.8293 134 35.7387 134 35.632V33.024H132.16V32.944C131.157 32.944 130.411 32.6987 129.92 32.208C129.44 31.7067 129.2 31.072 129.2 30.304C129.2 29.408 129.461 28.7467 129.984 28.32C130.517 27.8933 131.317 27.68 132.384 27.68H135.136C135.243 27.68 135.328 27.7173 135.392 27.792C135.467 27.856 135.504 27.9413 135.504 28.048V35.632C135.504 35.7387 135.467 35.8293 135.392 35.904C135.328 35.968 135.243 36 135.136 36H134.368ZM129.296 36C129.2 36 129.12 35.968 129.056 35.904C128.992 35.84 128.96 35.7653 128.96 35.68C128.96 35.6373 128.965 35.5947 128.976 35.552C128.997 35.4987 129.029 35.4453 129.072 35.392L130.976 32.576L132.512 32.688L130.48 35.76C130.437 35.8133 130.379 35.8667 130.304 35.92C130.229 35.9733 130.149 36 130.064 36H129.296ZM132.208 31.824H134.016V28.88H132.336C131.739 28.88 131.296 28.9867 131.008 29.2C130.731 29.4027 130.592 29.7707 130.592 30.304C130.592 30.7413 130.72 31.104 130.976 31.392C131.243 31.68 131.653 31.824 132.208 31.824ZM150.329 37.76C150.222 37.76 150.132 37.7227 150.057 37.648C149.993 37.584 149.961 37.4987 149.961 37.392V35.088C149.961 34.9813 149.993 34.896 150.057 34.832C150.132 34.7573 150.222 34.72 150.329 34.72H150.409C150.697 34.7093 150.942 34.5493 151.145 34.24C151.348 33.92 151.502 33.424 151.609 32.752C151.716 32.0693 151.769 31.184 151.769 30.096V28.048C151.769 27.9413 151.801 27.856 151.865 27.792C151.94 27.7173 152.03 27.68 152.137 27.68H157.241C157.348 27.68 157.433 27.7173 157.497 27.792C157.572 27.856 157.609 27.9413 157.609 28.048V34.688H158.361C158.478 34.688 158.569 34.7253 158.633 34.8C158.697 34.864 158.729 34.9493 158.729 35.056V37.392C158.729 37.4987 158.697 37.584 158.633 37.648C158.569 37.7227 158.478 37.76 158.361 37.76H157.609C157.502 37.76 157.412 37.7227 157.337 37.648C157.273 37.584 157.241 37.4987 157.241 37.392V36H151.449V37.392C151.449 37.4987 151.412 37.584 151.337 37.648C151.273 37.7227 151.188 37.76 151.081 37.76H150.329ZM152.313 34.72L156.121 34.688V28.96H153.225V30.272C153.225 31.4027 153.145 32.3307 152.985 33.056C152.825 33.7707 152.601 34.3253 152.313 34.72ZM168.311 36.16C167.5 36.16 166.823 36.0053 166.279 35.696C165.735 35.3867 165.319 34.96 165.031 34.416C164.743 33.8613 164.583 33.232 164.551 32.528C164.54 32.3467 164.535 32.1173 164.535 31.84C164.535 31.552 164.54 31.3227 164.551 31.152C164.583 30.4373 164.743 29.808 165.031 29.264C165.329 28.72 165.751 28.2933 166.295 27.984C166.839 27.6747 167.511 27.52 168.311 27.52C169.111 27.52 169.783 27.6747 170.327 27.984C170.871 28.2933 171.287 28.72 171.575 29.264C171.873 29.808 172.039 30.4373 172.071 31.152C172.081 31.3227 172.087 31.552 172.087 31.84C172.087 32.1173 172.081 32.3467 172.071 32.528C172.039 33.232 171.879 33.8613 171.591 34.416C171.303 34.96 170.887 35.3867 170.343 35.696C169.799 36.0053 169.121 36.16 168.311 36.16ZM168.311 34.928C168.972 34.928 169.5 34.72 169.895 34.304C170.289 33.8773 170.503 33.2587 170.535 32.448C170.545 32.288 170.551 32.0853 170.551 31.84C170.551 31.5947 170.545 31.392 170.535 31.232C170.503 30.4213 170.289 29.808 169.895 29.392C169.5 28.9653 168.972 28.752 168.311 28.752C167.649 28.752 167.116 28.9653 166.711 29.392C166.316 29.808 166.108 30.4213 166.087 31.232C166.076 31.392 166.071 31.5947 166.071 31.84C166.071 32.0853 166.076 32.288 166.087 32.448C166.108 33.2587 166.316 33.8773 166.711 34.304C167.116 34.72 167.649 34.928 168.311 34.928ZM181.95 36.16C181.193 36.16 180.537 36.016 179.982 35.728C179.438 35.4293 179.017 35.008 178.718 34.464C178.42 33.9093 178.26 33.248 178.238 32.48C178.228 32.32 178.222 32.1067 178.222 31.84C178.222 31.5733 178.228 31.36 178.238 31.2C178.26 30.432 178.42 29.776 178.718 29.232C179.017 28.6773 179.438 28.256 179.982 27.968C180.537 27.6693 181.193 27.52 181.95 27.52C182.569 27.52 183.097 27.6053 183.534 27.776C183.982 27.9467 184.35 28.1653 184.638 28.432C184.926 28.6987 185.14 28.9867 185.278 29.296C185.428 29.6053 185.508 29.8987 185.518 30.176C185.529 30.2827 185.497 30.368 185.422 30.432C185.348 30.496 185.257 30.528 185.15 30.528H184.382C184.276 30.528 184.196 30.5067 184.142 30.464C184.089 30.4107 184.036 30.3253 183.982 30.208C183.79 29.6853 183.529 29.3173 183.198 29.104C182.868 28.8907 182.457 28.784 181.966 28.784C181.326 28.784 180.804 28.9813 180.398 29.376C180.004 29.7707 179.79 30.4053 179.758 31.28C179.748 31.664 179.748 32.0373 179.758 32.4C179.79 33.2853 180.004 33.9253 180.398 34.32C180.804 34.704 181.326 34.896 181.966 34.896C182.457 34.896 182.868 34.7893 183.198 34.576C183.529 34.3627 183.79 33.9947 183.982 33.472C184.036 33.3547 184.089 33.2747 184.142 33.232C184.196 33.1787 184.276 33.152 184.382 33.152H185.15C185.257 33.152 185.348 33.184 185.422 33.248C185.497 33.312 185.529 33.3973 185.518 33.504C185.508 33.728 185.46 33.9573 185.374 34.192C185.289 34.4267 185.15 34.6667 184.958 34.912C184.777 35.1467 184.548 35.36 184.27 35.552C183.993 35.7333 183.657 35.8827 183.262 36C182.878 36.1067 182.441 36.16 181.95 36.16ZM194.462 36C194.356 36 194.265 35.968 194.19 35.904C194.126 35.8293 194.094 35.7387 194.094 35.632V28.96H191.31C191.204 28.96 191.113 28.928 191.038 28.864C190.974 28.7893 190.942 28.6987 190.942 28.592V28.048C190.942 27.9413 190.974 27.856 191.038 27.792C191.113 27.7173 191.204 27.68 191.31 27.68H198.35C198.457 27.68 198.542 27.7173 198.606 27.792C198.681 27.856 198.718 27.9413 198.718 28.048V28.592C198.718 28.6987 198.681 28.7893 198.606 28.864C198.542 28.928 198.457 28.96 198.35 28.96H195.566V35.632C195.566 35.7387 195.534 35.8293 195.47 35.904C195.406 35.968 195.316 36 195.198 36H194.462ZM206.926 36.16C206.393 36.16 205.907 36.0533 205.47 35.84C205.033 35.6267 204.681 35.3387 204.414 34.976C204.147 34.6133 204.014 34.2027 204.014 33.744C204.014 33.008 204.313 32.4213 204.91 31.984C205.507 31.5467 206.286 31.2587 207.246 31.12L209.63 30.784V30.32C209.63 29.808 209.481 29.408 209.182 29.12C208.894 28.832 208.419 28.688 207.758 28.688C207.278 28.688 206.889 28.784 206.59 28.976C206.302 29.168 206.099 29.4133 205.982 29.712C205.918 29.872 205.806 29.952 205.646 29.952H204.926C204.809 29.952 204.718 29.92 204.654 29.856C204.601 29.7813 204.574 29.696 204.574 29.6C204.574 29.44 204.633 29.2427 204.75 29.008C204.878 28.7733 205.07 28.544 205.326 28.32C205.582 28.096 205.907 27.9093 206.302 27.76C206.707 27.6 207.198 27.52 207.774 27.52C208.414 27.52 208.953 27.6053 209.39 27.776C209.827 27.936 210.169 28.1547 210.414 28.432C210.67 28.7093 210.851 29.024 210.958 29.376C211.075 29.728 211.134 30.0853 211.134 30.448V35.632C211.134 35.7387 211.097 35.8293 211.022 35.904C210.958 35.968 210.873 36 210.766 36H210.03C209.913 36 209.822 35.968 209.758 35.904C209.694 35.8293 209.662 35.7387 209.662 35.632V34.944C209.523 35.136 209.337 35.328 209.102 35.52C208.867 35.7013 208.574 35.856 208.222 35.984C207.87 36.1013 207.438 36.16 206.926 36.16ZM207.262 34.96C207.699 34.96 208.099 34.8693 208.462 34.688C208.825 34.496 209.107 34.2027 209.31 33.808C209.523 33.4133 209.63 32.9173 209.63 32.32V31.872L207.774 32.144C207.017 32.2507 206.446 32.432 206.062 32.688C205.678 32.9333 205.486 33.248 205.486 33.632C205.486 33.9307 205.571 34.1813 205.742 34.384C205.923 34.576 206.147 34.72 206.414 34.816C206.691 34.912 206.974 34.96 207.262 34.96ZM218.302 36C218.195 36 218.105 35.968 218.03 35.904C217.966 35.8293 217.934 35.7387 217.934 35.632V28.048C217.934 27.9413 217.966 27.856 218.03 27.792C218.105 27.7173 218.195 27.68 218.302 27.68H221.63C222.633 27.68 223.385 27.8827 223.886 28.288C224.398 28.6933 224.654 29.2373 224.654 29.92C224.654 30.4 224.563 30.7627 224.382 31.008C224.201 31.2533 223.945 31.4613 223.614 31.632C224.019 31.8027 224.323 32.08 224.526 32.464C224.739 32.8373 224.846 33.2267 224.846 33.632C224.846 34.4 224.574 34.9867 224.03 35.392C223.486 35.7973 222.729 36 221.758 36H218.302ZM219.406 34.832H221.63C222.142 34.832 222.553 34.736 222.862 34.544C223.182 34.3413 223.342 34.0373 223.342 33.632C223.342 33.2053 223.198 32.896 222.91 32.704C222.622 32.5013 222.195 32.4 221.63 32.4H219.406V34.832ZM219.406 31.216H221.534C222.046 31.216 222.451 31.104 222.75 30.88C223.059 30.656 223.214 30.3413 223.214 29.936C223.214 29.52 223.059 29.2373 222.75 29.088C222.451 28.928 222.046 28.848 221.534 28.848H219.406V31.216ZM231.771 36C231.664 36 231.573 35.968 231.499 35.904C231.435 35.8293 231.403 35.7387 231.403 35.632V28.048C231.403 27.9413 231.435 27.856 231.499 27.792C231.573 27.7173 231.664 27.68 231.771 27.68H232.523C232.629 27.68 232.715 27.7173 232.779 27.792C232.853 27.856 232.891 27.9413 232.891 28.048V31.12H234.347L236.507 27.92C236.56 27.8453 236.619 27.7867 236.683 27.744C236.747 27.7013 236.832 27.68 236.939 27.68H237.771C237.867 27.68 237.947 27.7013 238.011 27.744C238.075 27.7867 238.107 27.8507 238.107 27.936C238.107 27.9573 238.096 27.9893 238.075 28.032C238.064 28.064 238.048 28.096 238.027 28.128L235.627 31.664L238.347 35.536C238.4 35.6 238.427 35.6693 238.427 35.744C238.427 35.8293 238.395 35.8933 238.331 35.936C238.277 35.9787 238.203 36 238.107 36H237.131C237.035 36 236.955 35.9787 236.891 35.936C236.827 35.8933 236.768 35.8347 236.715 35.76L234.363 32.416H232.891V35.632C232.891 35.7387 232.853 35.8293 232.779 35.904C232.715 35.968 232.629 36 232.523 36H231.771ZM246.801 36.16C246.268 36.16 245.782 36.0533 245.345 35.84C244.908 35.6267 244.556 35.3387 244.289 34.976C244.022 34.6133 243.889 34.2027 243.889 33.744C243.889 33.008 244.188 32.4213 244.785 31.984C245.382 31.5467 246.161 31.2587 247.121 31.12L249.505 30.784V30.32C249.505 29.808 249.356 29.408 249.057 29.12C248.769 28.832 248.294 28.688 247.633 28.688C247.153 28.688 246.764 28.784 246.465 28.976C246.177 29.168 245.974 29.4133 245.857 29.712C245.793 29.872 245.681 29.952 245.521 29.952H244.801C244.684 29.952 244.593 29.92 244.529 29.856C244.476 29.7813 244.449 29.696 244.449 29.6C244.449 29.44 244.508 29.2427 244.625 29.008C244.753 28.7733 244.945 28.544 245.201 28.32C245.457 28.096 245.782 27.9093 246.177 27.76C246.582 27.6 247.073 27.52 247.649 27.52C248.289 27.52 248.828 27.6053 249.265 27.776C249.702 27.936 250.044 28.1547 250.289 28.432C250.545 28.7093 250.726 29.024 250.833 29.376C250.95 29.728 251.009 30.0853 251.009 30.448V35.632C251.009 35.7387 250.972 35.8293 250.897 35.904C250.833 35.968 250.748 36 250.641 36H249.905C249.788 36 249.697 35.968 249.633 35.904C249.569 35.8293 249.537 35.7387 249.537 35.632V34.944C249.398 35.136 249.212 35.328 248.977 35.52C248.742 35.7013 248.449 35.856 248.097 35.984C247.745 36.1013 247.313 36.16 246.801 36.16ZM247.137 34.96C247.574 34.96 247.974 34.8693 248.337 34.688C248.7 34.496 248.982 34.2027 249.185 33.808C249.398 33.4133 249.505 32.9173 249.505 32.32V31.872L247.649 32.144C246.892 32.2507 246.321 32.432 245.937 32.688C245.553 32.9333 245.361 33.248 245.361 33.632C245.361 33.9307 245.446 34.1813 245.617 34.384C245.798 34.576 246.022 34.72 246.289 34.816C246.566 34.912 246.849 34.96 247.137 34.96Z" fill="white" fill-opacity="0.7"/>
<defs>
<clipPath id="clip0_22071_8581">
<rect width="40" height="40" fill="white" transform="matrix(-1 0 0 1 40 1)"/>
</clipPath>
</defs>
</svg>
